# xmcd
#
# Track frame offsets:
#	150
#	18165
#	32280
#	44002
#	58865
#	75022
#	86747
#	101082
#	114770
#	125622
#	137647
#	156035
#	173487
#	187277
#	206972
#	219960
#	231735
#	242845
#	259062
#	271032
#	290305
#	308322
#
# Disc length: 4332 seconds
#
# Revision: 3
# Processed by: cddbd v1.5.1PL2 Copyright (c) Steve Scherf et al.
# Submitted via: dBpowerAMP V4.0
#
DISCID=2910ea16
DTITLE=Hank Williams Jr. - The Bocephus Box - 1979-1992 [CD1]
DYEAR=1992
DGENRE=Country
TTITLE0=Family Tradition
TTITLE1=To Love Somebody
TTITLE2=Old Flame, New Fire
TTITLE3=Only Daddy That'll Walk The Line
TTITLE4=I've Got Rights
TTITLE5=I Just Ain't Been Able
TTITLE6=Whiskey Bent And Hell Bound
TTITLE7=Outlaw Women
TTITLE8=(I Dont Have) Anymore Love Songs
TTITLE9=O.D.'d in Denver
TTITLE10=Come And go Blues
TTITLE11=The Conversation
TTITLE12=Old Habits
TTITLE13=Kaw-Liga
TTITLE14=If You Don't Like Hank Williams
TTITLE15=Dixie on my Mind
TTITLE16=Texas Women
TTITLE17=Ramblin' Man
TTITLE18=Waitin' on The Tables to Turn
TTITLE19=A Country Boy Can Survive
TTITLE20=All my Rowdy Friends (Have Settled Down)
TTITLE21=I've Been Down
EXTD=
EXTT0=
EXTT1=
EXTT2=
EXTT3=
EXTT4=
EXTT5=
EXTT6=
EXTT7=
EXTT8=
EXTT9=
EXTT10=
EXTT11=
EXTT12=
EXTT13=
EXTT14=
EXTT15=
EXTT16=
EXTT17=
EXTT18=
EXTT19=
EXTT20=
EXTT21=
PLAYORDER=
